<?xml version="1.0" standalone="no"?>
<!DOCTYPE svg PUBLIC "-//W3C//DTD SVG 20010904//EN"
 "http://www.w3.org/TR/2001/REC-SVG-20010904/DTD/svg10.dtd">
<svg version="1.0" xmlns="http://www.w3.org/2000/svg"
 width="720.000000pt" height="720.000000pt" viewBox="0 0 720.000000 720.000000"
 preserveAspectRatio="xMidYMid meet">
<metadata>
Created by potrace 1.14, written by Peter Selinger 2001-2017
</metadata>
<g transform="translate(0.000000,720.000000) scale(0.100000,-0.100000)"
fill="#000000" stroke="none">
<path d="M0 3600 l0 -3600 1624 0 c1615 0 1624 0 1629 20 4 15 14 20 40 20 20
0 42 -6 49 -14 8 -7 24 -17 37 -21 l23 -7 -18 33 c-11 19 -22 36 -26 39 -4 3
-9 17 -10 30 -3 21 2 26 26 28 31 4 86 -15 86 -29 0 -5 11 -14 25 -19 14 -5
25 -14 25 -19 0 -5 8 -12 19 -16 10 -3 29 -14 41 -25 22 -19 40 -20 573 -20
l549 0 -6 33 c-3 17 -10 72 -16 122 -6 49 -15 92 -19 95 -5 3 -14 36 -19 74
-6 38 -15 72 -20 75 -9 7 -32 123 -32 165 0 14 -4 26 -9 26 -4 0 -11 39 -15
87 -10 137 -17 174 -30 166 -6 -4 -5 1 3 10 9 12 10 21 4 29 -15 19 -23 61
-17 85 5 19 23 31 54 38 25 6 86 39 100 55 10 11 22 20 28 20 5 0 12 7 16 15
3 8 15 15 27 15 12 0 19 3 16 6 -4 4 3 15 15 25 11 11 16 19 10 19 -7 0 -3 9
7 19 27 27 31 84 27 351 -3 239 1 350 14 350 14 0 85 -62 109 -96 22 -31 26
-33 34 -17 6 9 12 60 14 113 l5 95 -37 60 c-21 33 -47 77 -58 97 -11 20 -37
60 -59 88 -44 58 -48 74 -16 65 45 -13 93 -56 166 -147 110 -137 115 -153 157
-468 35 -269 55 -392 67 -417 7 -15 7 -35 -1 -70 -7 -26 -13 -96 -14 -154 -2
-84 1 -108 14 -121 8 -9 21 -41 28 -72 7 -31 16 -56 21 -56 11 0 30 -115 30
-184 0 -36 4 -55 10 -51 6 3 10 1 10 -5 0 -7 14 -25 31 -41 l31 -29 -28 0
c-16 0 -51 12 -79 25 -27 14 -56 25 -63 25 -7 0 -11 3 -8 8 2 4 -25 16 -60 27
-35 11 -64 23 -64 27 0 4 -11 8 -24 8 -14 0 -28 5 -31 11 -4 6 -22 9 -40 7
-19 -1 -37 1 -41 5 -4 4 -17 7 -28 6 -21 0 -21 -1 -1 -9 l20 -9 -20 1 c-11 0
-31 4 -45 8 l-25 8 25 2 25 1 -23 9 c-12 5 -46 12 -75 14 -45 4 -49 3 -27 -7
14 -6 27 -14 30 -17 3 -4 32 -12 64 -19 33 -7 68 -21 79 -32 11 -10 33 -21 48
-24 16 -4 29 -11 29 -16 0 -5 11 -14 25 -19 14 -5 25 -14 25 -19 0 -5 14 -14
30 -21 17 -7 30 -16 30 -20 0 -4 13 -13 29 -20 16 -6 32 -18 35 -26 3 -8 12
-14 20 -14 8 0 21 -8 28 -18 7 -10 21 -21 30 -25 9 -3 20 -22 24 -41 3 -20 10
-36 14 -36 13 0 26 -143 20 -209 l-6 -61 943 0 943 0 0 3600 0 3600 -3600 0
-3600 0 0 -3600z m3395 3230 c-3 -5 -11 -10 -16 -10 -6 0 -7 5 -4 10 3 6 11
10 16 10 6 0 7 -4 4 -10z m1453 -496 c14 5 21 1 25 -14 8 -29 -44 -56 -73 -38
-23 15 -26 33 -7 52 8 10 16 11 24 4 7 -5 21 -7 31 -4z m111 -140 c-4 -13 -3
-26 4 -33 8 -8 8 -11 0 -11 -6 0 -19 -7 -28 -16 -9 -9 -19 -14 -22 -11 -3 3 2
13 11 23 9 9 14 24 11 34 -3 10 -1 21 5 25 5 3 10 16 11 28 0 21 1 21 8 2 5
-11 5 -30 0 -41z m21 -129 c-19 -20 -36 -31 -38 -25 -7 19 7 40 30 50 41 16
43 11 8 -25z m45 -75 c-3 -5 -12 -10 -18 -10 -7 0 -6 4 3 10 19 12 23 12 15 0z
m-1136 -176 c2 -2 -2 -10 -9 -19 -11 -14 -5 -15 63 -12 71 3 75 2 66 -15 -9
-16 -5 -18 49 -18 40 0 64 -5 71 -14 7 -8 20 -14 29 -14 9 0 55 -9 102 -20 47
-12 146 -36 220 -53 74 -18 151 -40 171 -50 53 -26 135 -120 153 -176 23 -70
54 -226 48 -238 -3 -5 -5 -24 -3 -41 1 -18 -2 -35 -8 -38 -6 -4 -6 -18 -1 -35
4 -16 6 -31 4 -34 -3 -2 2 -10 11 -17 20 -17 19 -31 -2 -23 -14 6 -15 1 -10
-38 11 -76 15 -86 55 -163 29 -54 42 -93 47 -138 3 -35 9 -76 12 -92 l5 -30
16 30 c8 16 17 23 19 17 3 -7 -3 -27 -12 -45 -9 -18 -25 -60 -37 -93 -11 -33
-25 -66 -30 -73 -6 -7 -8 -15 -5 -18 11 -11 59 79 89 165 17 47 39 109 49 136
l18 50 0 -45 c1 -25 -10 -101 -24 -170 -13 -69 -25 -138 -25 -154 0 -24 -3
-28 -22 -22 -13 3 -50 11 -83 17 -131 23 -342 74 -333 80 6 4 25 3 42 -2 17
-5 39 -9 48 -9 28 0 6 43 -27 51 -15 5 -35 14 -44 21 -16 14 -52 32 -82 41 -9
3 -25 -1 -36 -8 -14 -10 -30 -11 -59 -5 -48 12 -56 12 -51 3 3 -5 -17 -8 -44
-7 -26 0 -46 -3 -44 -7 3 -4 -5 -7 -18 -7 -36 -1 -141 -12 -156 -18 -9 -3 -11
1 -7 13 4 12 0 11 -12 -5 -13 -16 -23 -21 -37 -16 -11 5 -16 4 -12 -3 4 -6 -2
-18 -12 -27 -17 -15 -20 -16 -34 -1 -15 14 -18 12 -38 -26 l-21 -43 -19 25
-19 24 0 -22 c0 -13 -4 -23 -10 -23 -5 0 -10 -9 -10 -19 0 -20 -32 -37 -50
-26 -5 3 -10 -1 -10 -9 0 -10 -9 -16 -25 -16 -14 0 -25 -4 -25 -10 0 -13 -37
-13 -45 0 -4 6 -15 6 -30 0 -16 -6 -42 -6 -72 1 -27 6 -61 10 -76 9 -16 0 -41
8 -56 19 -15 11 -40 23 -57 27 -16 4 -35 11 -41 16 -8 7 -23 6 -43 -1 -21 -7
-48 -7 -86 0 -30 6 -64 7 -74 4 -11 -4 -20 -2 -20 3 0 5 -26 10 -57 10 -32 0
-78 3 -103 7 -55 7 -73 8 -130 6 -75 -4 -98 -2 -105 9 -8 13 -52 13 -60 0 -3
-5 -22 -10 -41 -10 -28 0 -34 4 -34 21 0 11 9 33 19 48 11 15 23 39 26 53 5
17 12 25 21 21 8 -3 17 3 21 13 4 10 2 19 -5 22 -7 2 -12 8 -12 14 0 7 5 6 14
-1 19 -16 32 5 16 24 -15 19 13 50 36 41 13 -5 15 -1 10 19 -4 14 -2 25 3 25
5 0 11 12 13 27 2 21 13 32 43 47 22 10 42 22 43 27 7 18 24 8 19 -11 -3 -11
-1 -20 4 -20 5 0 9 15 9 33 0 34 20 71 39 73 6 1 18 2 26 3 8 0 15 7 15 15 0
8 -9 14 -19 13 -11 0 -17 -5 -15 -9 3 -4 0 -8 -5 -8 -6 0 -11 5 -11 10 0 6 -5
10 -11 10 -5 0 -7 -6 -3 -12 5 -9 4 -10 -4 -3 -6 6 -12 21 -14 35 -4 34 -82
74 -112 58 -20 -10 -20 -10 -5 8 19 23 31 54 21 54 -22 1 -43 30 -37 50 5 17
10 19 21 9 18 -15 18 0 -1 25 -8 10 -19 15 -26 11 -9 -6 -10 -1 -5 18 3 15 1
29 -5 32 -6 4 -8 13 -5 21 3 8 -1 14 -9 14 -8 0 -15 5 -15 11 0 5 8 9 18 8 41
-4 44 0 23 30 -12 16 -21 34 -21 40 0 6 -7 8 -15 5 -9 -4 -16 3 -21 20 -3 14
-10 23 -15 20 -5 -3 -7 -10 -4 -15 4 -5 -5 -9 -19 -9 -14 0 -26 4 -26 10 0 5
6 7 13 4 7 -2 21 10 31 27 37 62 110 123 177 148 35 13 71 29 79 36 8 7 32 18
53 25 21 6 51 23 67 37 17 14 37 22 45 19 9 -3 24 3 35 14 11 11 16 20 10 20
-5 0 -10 5 -10 11 0 6 9 9 20 6 11 -3 20 -2 20 3 0 4 10 10 22 13 24 7 62 -15
50 -29 -4 -4 1 -2 10 5 10 7 20 21 23 32 8 24 25 25 26 2 0 -11 3 -13 6 -5 8
20 32 13 46 -14 10 -18 16 -23 22 -15 5 9 12 8 26 -5 18 -16 20 -16 37 -1 11
10 26 14 40 10 12 -3 30 1 39 8 15 12 16 12 10 -5 -6 -15 -4 -17 15 -12 13 3
32 6 43 6 15 0 17 3 7 9 -10 6 -8 10 10 16 12 4 26 7 31 6 4 -1 7 4 7 10 0 18
62 68 93 75 17 3 39 15 50 25 18 16 58 18 76 3z m-609 -95 c0 -5 -4 -9 -10 -9
-5 0 -10 7 -10 16 0 8 5 12 10 9 6 -3 10 -10 10 -16z m-425 -768 c3 -5 1 -12
-5 -16 -5 -3 -10 1 -10 9 0 18 6 21 15 7z m15 -61 c0 -5 5 -9 11 -7 6 1 14 -4
16 -10 3 -7 -1 -13 -9 -13 -18 1 -49 26 -41 33 10 10 23 8 23 -3z m1495 -490
c-3 -5 -21 -10 -38 -9 -31 1 -31 1 -7 9 36 11 52 11 45 0z m-90 -20 c-27 -12
-43 -12 -25 0 8 5 22 9 30 9 10 0 8 -3 -5 -9z m-55 -20 c-20 -13 -33 -13 -25
0 3 6 14 10 23 10 15 0 15 -2 2 -10z m443 -37 c-7 -2 -19 -2 -25 0 -7 3 -2 5
12 5 14 0 19 -2 13 -5z m81 -17 c19 -8 37 -19 40 -25 4 -5 -13 -2 -36 8 -24
10 -50 21 -58 24 -12 4 -11 6 3 6 10 1 33 -5 51 -13z m-94 -21 c76 -10 122
-35 126 -68 2 -20 -3 -27 -23 -32 -15 -3 -34 0 -47 9 -31 20 -90 35 -188 46
-116 14 -142 20 -131 31 5 5 45 13 89 17 86 9 92 9 174 -3z m-2748 -35 c-2
-16 -7 -30 -11 -31 -32 -5 -91 -4 -91 2 0 15 63 59 84 59 19 0 22 -4 18 -30z
m263 -25 c87 -43 199 -115 191 -122 -3 -4 -14 1 -24 10 -10 10 -22 17 -25 17
-4 0 -31 16 -61 35 -29 20 -88 52 -132 71 -43 20 -65 33 -49 29 17 -3 62 -21
100 -40z m885 39 c-38 -8 -90 -9 -90 -2 0 4 24 7 53 7 28 -1 45 -3 37 -5z
m1974 -189 c-1 -55 -8 -140 -17 -190 -10 -55 -18 -174 -21 -305 -5 -191 -18
-307 -49 -452 -1 -6 12 -15 28 -22 68 -25 210 -122 282 -193 83 -81 71 -74
-42 24 -70 60 -154 118 -208 141 -45 19 -64 15 -72 -15 -15 -65 -147 -373
-159 -373 -6 0 6 42 21 70 16 30 17 50 2 50 -5 0 -7 5 -4 10 4 6 12 7 18 3 8
-5 8 -2 0 9 -7 8 -11 17 -9 19 2 2 7 63 10 135 4 73 10 145 14 160 9 34 8 52
-3 77 -6 14 -10 15 -16 6 -6 -10 -11 -10 -24 1 -14 11 -18 11 -25 0 -7 -11
-14 -10 -42 4 -48 25 -92 50 -98 56 -3 3 -32 18 -65 35 -33 16 -91 48 -130 72
-38 23 -108 57 -155 75 l-85 33 65 6 c36 3 77 10 91 16 14 6 56 19 94 28 188
48 345 165 411 309 14 31 33 98 41 149 8 51 17 102 19 114 2 13 22 34 45 48
22 14 45 38 52 52 l12 27 9 -40 c5 -21 10 -84 10 -139z m-165 72 c13 -62 -7
-202 -40 -276 -53 -119 -181 -229 -316 -271 -110 -34 -277 -24 -369 22 -52 25
-115 84 -149 138 -30 48 -65 138 -64 165 0 17 1 18 7 3 4 -9 21 -27 37 -40 17
-13 30 -30 30 -38 0 -8 9 -15 20 -16 11 0 32 -5 48 -12 71 -30 267 -68 267
-52 0 5 15 6 33 3 30 -4 80 13 137 48 8 5 24 13 36 18 12 5 36 23 54 40 29 26
32 32 20 46 -11 13 -11 18 -1 24 7 5 18 19 24 31 7 13 17 23 22 24 26 2 148
124 167 167 7 16 16 29 20 29 3 0 11 -24 17 -53z m-513 6 c-10 -10 -19 5 -10
18 6 11 8 11 12 0 2 -7 1 -15 -2 -18z m198 -58 c4 -14 3 -31 0 -37 -5 -8 -1
-9 12 -3 26 11 114 13 114 3 0 -4 -6 -8 -13 -8 -7 0 -31 -9 -52 -21 -69 -36
-158 -56 -286 -65 -68 -5 -143 -8 -167 -8 -41 1 -42 0 -25 -18 9 -10 23 -16
30 -14 8 3 32 -2 55 -11 47 -19 118 -21 221 -6 41 6 64 6 58 0 -23 -23 -254
-37 -291 -17 -29 15 -117 23 -124 11 -11 -18 -30 -12 -50 16 l-19 26 28 -6
c18 -3 38 1 54 12 14 9 37 17 51 18 34 3 176 20 227 28 32 5 50 16 77 46 20
21 36 45 36 53 0 33 56 34 64 1z m-2139 -25 c-3 -5 -14 -10 -23 -9 -14 0 -13
2 3 9 27 11 27 11 20 0z m1392 -116 c13 -8 42 -49 65 -90 24 -42 53 -89 66
-105 13 -16 21 -33 18 -38 -11 -18 10 -49 96 -142 48 -52 98 -110 112 -129 14
-19 33 -45 42 -58 23 -31 23 -119 0 -154 -20 -31 -26 -33 -126 -59 -41 -11
-97 -31 -124 -46 -46 -24 -54 -25 -135 -19 -47 4 -96 7 -108 7 -13 0 -23 3
-23 8 0 9 -26 19 -65 27 -11 2 -71 6 -134 9 -106 5 -115 7 -145 32 -30 27 -68
92 -82 143 -4 14 -11 28 -17 32 -6 4 -2 17 12 33 11 15 21 34 21 41 0 7 13 20
28 28 40 21 133 123 175 193 19 32 47 98 63 147 31 102 59 140 112 154 45 13
119 6 149 -14z m473 -30 c0 -2 -9 -4 -21 -4 -11 0 -18 4 -14 10 5 8 35 3 35
-6z m60 6 c0 -5 -4 -10 -10 -10 -5 0 -10 5 -10 10 0 6 5 10 10 10 6 0 10 -4
10 -10z m40 0 c0 -5 -4 -10 -9 -10 -6 0 -13 5 -16 10 -3 6 1 10 9 10 9 0 16
-4 16 -10z m-1513 -26 c2 -6 -6 -11 -18 -10 -12 0 -24 7 -27 14 -3 9 3 13 19
10 12 -1 24 -8 26 -14z m369 -27 c4 -4 3 -7 -2 -7 -5 0 -61 -5 -125 -10 -70
-7 -125 -7 -140 -1 -21 7 -16 9 31 15 30 3 69 7 85 9 49 6 143 2 151 -6z m204
-49 c0 -13 -25 -113 -40 -163 l-9 -30 22 29 c12 16 35 52 50 80 35 64 24 21
-14 -56 -79 -156 -267 -256 -465 -246 -155 8 -290 98 -367 246 -20 38 -37 78
-37 88 1 13 5 9 14 -11 19 -44 63 -105 70 -98 3 4 6 -1 6 -10 0 -9 15 -21 35
-28 19 -7 35 -16 35 -20 0 -4 10 -5 23 -2 12 3 19 3 15 -2 -11 -12 15 -34 28
-24 6 5 54 15 105 22 93 13 139 29 139 47 0 6 5 10 11 10 5 0 7 -4 4 -10 -3
-5 1 -10 9 -10 10 0 13 6 9 16 -5 14 -2 16 21 10 23 -6 29 -3 33 14 4 13 11
19 20 16 8 -3 20 -6 26 -6 6 0 2 -7 -9 -15 -13 -10 -6 -9 24 4 69 30 85 57 18
31 -20 -7 -24 -6 -20 5 3 8 9 14 12 13 4 -1 18 4 31 11 19 10 25 11 31 0 6 -9
23 2 60 37 57 55 110 80 110 52z m-787 -250 c54 -57 167 -131 232 -152 50 -16
50 -16 -105 -15 -167 2 -213 6 -205 19 3 5 1 11 -4 15 -6 3 -6 15 0 33 12 34
48 82 49 64 0 -7 5 -10 11 -6 7 4 9 0 5 -13 -5 -16 -1 -19 26 -19 l33 0 -26
25 c-14 14 -30 35 -37 46 -13 23 -15 22 -91 -43 l-51 -44 -10 27 c-5 14 -10
34 -10 44 0 33 28 87 52 99 23 13 38 62 18 62 -6 0 -10 14 -10 31 0 27 6 20
40 -48 21 -43 59 -100 83 -125z m1357 102 c17 -21 55 -54 83 -72 34 -22 46
-34 35 -36 -33 -6 -122 66 -156 126 -20 36 3 25 38 -18z m-880 0 c0 -5 -5 -10
-11 -10 -5 0 -7 5 -4 10 3 6 8 10 11 10 2 0 4 -4 4 -10z m34 -287 c8 -9 -114
-133 -131 -133 -6 0 -16 -6 -20 -14 -4 -8 -32 -30 -60 -50 -56 -38 -97 -45
-129 -22 -17 13 -21 12 -38 -2 -14 -14 -37 -17 -111 -16 -79 1 -97 4 -124 23
-17 12 -31 19 -31 14 0 -4 -9 11 -20 35 -10 23 -24 42 -30 42 -7 0 -10 16 -8
42 4 54 34 73 91 57 82 -22 353 -14 497 15 78 16 104 18 114 9z m1133 -155
c-3 -8 -6 -5 -6 6 -1 11 2 17 5 13 3 -3 4 -12 1 -19z m-57 -138 c0 -5 -7 -10
-15 -10 -8 0 -15 5 -15 10 0 6 7 10 15 10 8 0 15 -4 15 -10z m1121 -287 c13
-16 12 -17 -3 -4 -10 7 -18 15 -18 17 0 8 8 3 21 -13z m-1171 -94 c0 -11 -5
-29 -11 -41 -16 -29 -5 -33 38 -12 21 9 56 19 78 20 32 1 43 7 55 28 19 34 29
33 62 -6 31 -36 32 -45 17 -103 -6 -22 -10 -58 -10 -80 1 -31 -1 -36 -9 -25
-8 11 -9 8 -4 -12 5 -22 3 -28 -10 -28 -18 0 -57 -20 -68 -34 -3 -5 -4 -14 -2
-21 3 -6 -4 -20 -16 -30 -11 -10 -20 -13 -20 -7 0 7 -4 12 -10 12 -5 0 -10 -6
-10 -13 0 -8 -9 -22 -19 -31 -22 -20 -81 -29 -75 -11 6 14 -55 18 -71 5 -9 -7
-15 -8 -19 -1 -4 6 -13 8 -21 4 -22 -8 -18 13 10 54 28 42 27 47 -6 35 -13 -5
-37 -7 -54 -5 -23 3 -26 1 -15 -7 13 -9 13 -11 0 -20 -16 -10 -26 -11 -165
-14 -119 -2 -220 11 -272 35 -24 10 -45 19 -48 19 -11 0 -45 35 -45 47 0 7
-18 21 -40 30 -44 20 -54 37 -15 27 17 -4 25 -2 25 6 0 13 49 10 155 -10 28
-5 93 -9 146 -9 108 -1 203 25 339 94 63 32 72 39 58 49 -18 13 -9 40 20 64
23 17 32 15 32 -9z m-106 5 c38 -14 11 -79 -42 -101 -33 -14 -37 -13 -49 3
-11 16 -13 15 -22 -9 -15 -39 -136 -72 -160 -43 -12 14 -15 13 -30 -5 -14 -17
-26 -20 -81 -17 -63 3 -66 4 -79 36 -17 37 -28 41 -27 10 1 -20 -5 -23 -37
-26 -62 -5 -74 14 -44 76 13 27 50 29 75 4 16 -17 19 -16 57 10 46 31 119 49
110 27 -3 -8 4 -20 16 -27 19 -12 24 -11 50 14 39 38 119 46 141 15 l16 -22
30 31 c31 30 47 35 76 24z m1476 -45 l25 -20 -32 16 c-18 8 -33 18 -33 20 0
10 16 4 40 -16z m-2436 -39 c-6 -6 -10 -3 -10 10 0 13 4 16 10 10 7 -7 7 -13
0 -20z m324 -19 c-3 -28 -32 -41 -41 -17 -10 27 3 54 24 49 15 -4 19 -13 17
-32z m2178 7 l19 -23 -25 20 c-14 11 -27 21 -29 22 -2 2 0 3 6 3 5 0 18 -10
29 -22z m-2486 -24 c56 -17 60 -23 34 -48 -14 -15 -11 -21 10 -17 5 1 16 -1
24 -4 11 -4 12 -8 2 -20 -6 -8 -9 -18 -6 -24 3 -5 -1 -11 -9 -15 -8 -3 -14 -2
-14 2 4 24 -4 38 -23 47 -13 6 -23 15 -23 22 0 6 -3 14 -7 18 -4 4 -4 13 -1
21 3 8 0 14 -6 14 -6 0 -11 5 -11 11 0 6 5 7 13 2 6 -4 14 -8 17 -9z m93 -154
c3 -11 1 -18 -4 -14 -5 3 -9 12 -9 20 0 20 7 17 13 -6z m1407 -30 c-16 -31
-23 -18 -8 15 7 15 14 23 16 17 2 -6 -2 -21 -8 -32z m-263 -16 c-3 -3 -12 -4
-19 -1 -8 3 -5 6 6 6 11 1 17 -2 13 -5z m323 -78 c52 -37 94 -77 138 -135 35
-46 61 -86 58 -88 -3 -3 -27 18 -53 48 -75 84 -113 117 -180 155 -44 24 -63
41 -63 54 0 30 18 24 100 -34z m1187 -152 c-3 -3 -12 -4 -19 -1 -8 3 -5 6 6 6
11 1 17 -2 13 -5z m40 0 c-3 -3 -12 -4 -19 -1 -8 3 -5 6 6 6 11 1 17 -2 13 -5z
m-1428 -345 c6 -36 24 -99 41 -140 35 -86 37 -98 11 -75 -47 43 -130 260 -118
307 3 12 0 19 -9 19 -10 0 -5 18 19 62 l32 62 7 -84 c4 -47 12 -115 17 -151z
m-118 30 c-9 -55 3 -179 17 -188 5 -3 25 -35 44 -71 51 -98 124 -203 158 -225
17 -11 33 -28 36 -37 3 -10 13 -25 21 -34 10 -10 16 -33 16 -60 0 -41 -4 -47
-82 -124 l-81 -80 -6 30 c-4 16 -10 30 -14 30 -4 0 -11 12 -15 28 -16 67 -122
185 -176 197 -16 4 -29 8 -29 10 0 1 9 22 20 46 12 27 20 66 20 102 l0 57 -45
0 c-40 0 -48 4 -65 33 -12 18 -18 40 -15 52 4 11 7 27 9 35 15 84 21 103 34
108 9 3 24 14 34 24 10 10 25 18 33 18 8 0 15 9 15 20 0 11 4 20 10 20 5 0 22
14 37 30 14 17 27 29 29 28 1 -2 -1 -24 -5 -49z m1309 -162 c0 -13 -29 12 -42
37 -10 19 -8 18 16 -3 14 -14 26 -29 26 -34z m40 -70 c0 -5 -7 -2 -15 7 -8 8
-15 20 -15 27 0 14 29 -20 30 -34z"/>
<path d="M2790 5200 c-12 -7 -12 -12 -2 -22 9 -9 15 -9 24 0 16 16 -2 34 -22
22z"/>
<path d="M2800 4662 c0 -5 6 -15 14 -21 12 -10 14 -9 12 5 -3 19 -26 33 -26
16z"/>
<path d="M4647 4492 c-10 -2 -16 -9 -14 -15 5 -15 19 -18 37 -7 19 12 2 28
-23 22z"/>
<path d="M4986 4054 c-7 -53 -8 -150 -2 -143 6 5 18 189 13 189 -3 0 -7 -21
-11 -46z"/>
<path d="M4841 1179 c5 -19 10 -49 11 -66 0 -35 11 -41 34 -19 7 8 19 16 26
18 8 3 -6 24 -34 53 l-48 49 11 -35z"/>
<path d="M4698 653 c7 -3 16 -2 19 1 4 3 -2 6 -13 5 -11 0 -14 -3 -6 -6z"/>
</g>
</svg>
